<svg xmlns="http://www.w3.org/2000/svg"
     viewBox="0 0 228.66 39.08">
    <style>.cls-1{fill:#fed136;}</style>
    <path class="cls-1" d="M23.08,15.17c.07.4.13.68.16.83a2.66,2.66,0,0,1,.05.62,4.76,4.76,0,0,1-.51,2.18,3,3,0,0,1-1.4,1.43,7.12,7.12,0,0,0-1.73-1.64,10.8,10.8,0,0,0-2.25-1.14,14.23,14.23,0,0,0-2.53-.65,16,16,0,0,0-2.55-.21,13,13,0,0,0-2.32.19,9.91,9.91,0,0,0-1.91.53,3.79,3.79,0,0,0-1.31.83,1.61,1.61,0,0,0-.48,1.14,2.73,2.73,0,0,0,1,1.57,12.76,12.76,0,0,0,2.09,1.56c.82.51,1.74,1,2.74,1.5s2,1,3,1.42c1.2.57,2.24,1.09,3.11,1.58a9.31,9.31,0,0,1,2.16,1.59,5.83,5.83,0,0,1,1.28,2A7.5,7.5,0,0,1,22,33.12a9.43,9.43,0,0,1-.6,3.38,7.84,7.84,0,0,1-1.75,2.74,8.21,8.21,0,0,1-2.78,1.83,9.85,9.85,0,0,1-3.65.65A17,17,0,0,1,9,41.12a20,20,0,0,1-4.3-1.65,12.61,12.61,0,0,1-3.33-2.4A4.09,4.09,0,0,1,0,34.18a5.48,5.48,0,0,1,.41-1.8,7.5,7.5,0,0,1,1.47-2.31A5.49,5.49,0,0,0,3,32.59a10.14,10.14,0,0,0,3.13,2.69,15.79,15.79,0,0,0,4,1.65,16.23,16.23,0,0,0,3.87.51,8.83,8.83,0,0,0,3.23-.5,5.89,5.89,0,0,0,1.94-1.18,3.94,3.94,0,0,0,1-1.4,4,4,0,0,0,.32-1.13,2.14,2.14,0,0,0-.65-1.37,7.65,7.65,0,0,0-1.67-1.27c-.69-.41-1.5-.83-2.42-1.26s-1.88-.85-2.87-1.27c-1.48-.66-2.77-1.28-3.84-1.86a14.83,14.83,0,0,1-2.65-1.77,5.88,5.88,0,0,1-1.53-1.9,5.1,5.1,0,0,1-.47-2.26,6.57,6.57,0,0,1,1.2-3.75A7.41,7.41,0,0,1,9.1,13.83a10,10,0,0,1,2.42-.71,15.83,15.83,0,0,1,2.53-.22,16.76,16.76,0,0,1,4.57.64A34.29,34.29,0,0,1,23.08,15.17Z" transform="translate(0 -12.9)"/>
    <path class="cls-1" d="M25.92,25.47a2.16,2.16,0,0,1-.32-.9,5.75,5.75,0,0,1-.15-1.19,11.13,11.13,0,0,0,1.77.15h1.56c.36-.7.74-1.4,1.15-2.09s.82-1.32,1.21-1.89a17.57,17.57,0,0,1,1.09-1.45,4.35,4.35,0,0,1,.8-.77,4.29,4.29,0,0,1,.9.12c.37.09.74.19,1.12.32s.72.27,1,.41a1.89,1.89,0,0,1,.63.42c-.71.9-1.31,1.72-1.82,2.48s-1.06,1.64-1.65,2.62h1.44a10.58,10.58,0,0,0,1.47-.1,1.28,1.28,0,0,1,.28.44,1.5,1.5,0,0,1,.11.55,11.71,11.71,0,0,1-4.22.67c-.59,1.14-1.11,2.27-1.57,3.39s-.85,2.21-1.17,3.25a26.36,26.36,0,0,0-.74,2.94,13.17,13.17,0,0,0-.27,2.49q0,1.56,1.17,1.74a8.46,8.46,0,0,0,2-.53,6.68,6.68,0,0,0,1.7-1,1.42,1.42,0,0,1,.24.54,3.7,3.7,0,0,1-.72.73,12.51,12.51,0,0,1-1.12.83,10.47,10.47,0,0,1-1.17.69,3,3,0,0,1-.85.31,4.85,4.85,0,0,1-1.77-.35,7.38,7.38,0,0,1-1.61-.89,4.93,4.93,0,0,1-1.18-1.19,2.19,2.19,0,0,1-.46-1.29,11.94,11.94,0,0,1,.23-2.14c.15-.87.37-1.8.65-2.82s.62-2.08,1-3.19.79-2.21,1.24-3.3Z" transform="translate(0 -12.9)"/>
    <path class="cls-1" d="M48.5,24.73a3.45,3.45,0,0,1,.83.12,4.92,4.92,0,0,1,.87.32,3.48,3.48,0,0,1,.65.41q.27.21.27.39c-.47,1-.91,2-1.31,3s-.74,2-1,2.89a24.37,24.37,0,0,0-.65,2.58,11.63,11.63,0,0,0-.23,2.09,5.4,5.4,0,0,0,.21,1.64,1.58,1.58,0,0,0,.71.94,3.64,3.64,0,0,1-1.1.46,4.72,4.72,0,0,1-1.2.18c-1.28,0-1.91-.87-1.91-2.62A16.45,16.45,0,0,1,46,31.6a21.14,21.14,0,0,1-1.63,3,22.3,22.3,0,0,1-1.87,2.52A11.21,11.21,0,0,1,40.52,39a4.79,4.79,0,0,1-1.79.83,2.46,2.46,0,0,1-2.12-1.2,5.2,5.2,0,0,1-.82-3,11.6,11.6,0,0,1,.85-4.19,18.86,18.86,0,0,1,2.18-4.09,15.66,15.66,0,0,1,2.88-3.14,4.81,4.81,0,0,1,3-1.27,2.89,2.89,0,0,1,.8.43,6.43,6.43,0,0,1,.85.74,5.91,5.91,0,0,1,.69.86,2,2,0,0,1,.32.76A6.31,6.31,0,0,0,44.45,27a14.3,14.3,0,0,0-2.73,2.81,16.49,16.49,0,0,0-2,3.51,9.17,9.17,0,0,0-.78,3.5.8.8,0,0,0,.5.85,5,5,0,0,0,2.37-1.76,33.44,33.44,0,0,0,3.26-4.76l.79-1.41c.3-.52.6-1.07.91-1.63l.9-1.72C48,25.83,48.24,25.27,48.5,24.73Z" transform="translate(0 -12.9)"/>
    <path class="cls-1" d="M52.08,38.32c.11-.68.32-1.58.62-2.7s.64-2.32,1-3.58.83-2.53,1.27-3.81.89-2.42,1.31-3.43a17,17,0,0,1,.82-1.72,4.49,4.49,0,0,1,.78-1,5.82,5.82,0,0,1,1,.25,7.17,7.17,0,0,1,1,.42,10.06,10.06,0,0,1,.89.51,3,3,0,0,1,.6.52,12.47,12.47,0,0,0-1.68,2.58A26.67,26.67,0,0,0,58.31,30q1.9-1.7,3.38-3.26a26,26,0,0,0,2.74-3.47,1.24,1.24,0,0,1,.74-.17,2.8,2.8,0,0,1,1,.16,1.13,1.13,0,0,1,.64.44,9.39,9.39,0,0,0-.64,3.36,4.67,4.67,0,0,0,.46,2.34,2.52,2.52,0,0,1-.48.81,9.48,9.48,0,0,1-1,1.13A5.64,5.64,0,0,1,63.44,30a5.85,5.85,0,0,1-1.1-1.89,25,25,0,0,0-2.83,2.28,11.89,11.89,0,0,0-2,2.48A15.33,15.33,0,0,0,56.09,36c-.38,1.18-.76,2.59-1.11,4.22a3.32,3.32,0,0,1-.76-.23,6.46,6.46,0,0,1-.89-.48,6.29,6.29,0,0,1-.79-.6A1.65,1.65,0,0,1,52.08,38.32Z" transform="translate(0 -12.9)"/>
    <path class="cls-1" d="M69.28,25.47a2.31,2.31,0,0,1-.32-.9,6.42,6.42,0,0,1-.14-1.19,11.13,11.13,0,0,0,1.77.15h1.56c.35-.7.74-1.4,1.15-2.09s.81-1.32,1.2-1.89a17.48,17.48,0,0,1,1.1-1.45,4.05,4.05,0,0,1,.8-.77,4.46,4.46,0,0,1,.9.12c.37.09.74.19,1.12.32s.72.27,1,.41a1.85,1.85,0,0,1,.64.42c-.71.9-1.32,1.72-1.82,2.48s-1.06,1.64-1.65,2.62H78a10.37,10.37,0,0,0,1.47-.1,1.17,1.17,0,0,1,.29.44,1.49,1.49,0,0,1,.1.55,11.62,11.62,0,0,1-4.21.67c-.59,1.14-1.12,2.27-1.58,3.39S73.26,30.86,73,31.9a28.93,28.93,0,0,0-.75,2.94,14,14,0,0,0-.26,2.49q0,1.56,1.17,1.74a8.38,8.38,0,0,0,2-.53,6.35,6.35,0,0,0,1.7-1,1.47,1.47,0,0,1,.25.54,3.53,3.53,0,0,1-.73.73,12.33,12.33,0,0,1-1.11.83,10.47,10.47,0,0,1-1.17.69,3.1,3.1,0,0,1-.85.31,4.85,4.85,0,0,1-1.77-.35,7.16,7.16,0,0,1-1.61-.89,4.93,4.93,0,0,1-1.18-1.19,2.2,2.2,0,0,1-.47-1.29,13,13,0,0,1,.23-2.14c.16-.87.38-1.8.66-2.82s.61-2.08,1-3.19.79-2.21,1.24-3.3Z" transform="translate(0 -12.9)"/>
</svg>
